<svg width="33" height="33" viewBox="0 0 33 33" fill="none" xmlns="http://www.w3.org/2000/svg">
<path d="M27.3952 27.6906H22.6537V20.2654C22.6537 18.4948 22.6221 16.2155 20.1877 16.2155C17.7183 16.2155 17.3404 18.1446 17.3404 20.1365V27.6901H12.599V12.4209H17.1508V14.5076H17.2145C17.67 13.7287 18.3282 13.088 19.1191 12.6536C19.91 12.2193 20.8038 12.0076 21.7055 12.0411C26.5111 12.0411 27.3971 15.202 27.3971 19.3142L27.3952 27.6906ZM7.24915 10.3337C6.70495 10.3338 6.17295 10.1725 5.72041 9.87022C5.26788 9.56797 4.91514 9.1383 4.7068 8.63557C4.49845 8.13284 4.44386 7.57962 4.54993 7.04586C4.65601 6.5121 4.91797 6.02179 5.3027 5.63692C5.68744 5.25204 6.17766 4.9899 6.71138 4.88364C7.24509 4.77738 7.79834 4.83177 8.30115 5.03993C8.80396 5.24809 9.23374 5.60068 9.53616 6.05311C9.83858 6.50553 10 7.03748 10.0001 7.58167C10.0002 7.943 9.92911 8.30081 9.79089 8.63466C9.65268 8.96851 9.45006 9.27187 9.1946 9.52742C8.93915 9.78296 8.63586 9.98569 8.30206 10.124C7.96826 10.2624 7.61048 10.3336 7.24915 10.3337ZM9.61984 27.6906H4.8735V12.4209H9.61984V27.6906ZM29.7589 0.427594H2.49096C1.87205 0.42061 1.27568 0.659624 0.832912 1.09211C0.390142 1.5246 0.137192 2.11519 0.129639 2.73409V30.1152C0.136934 30.7344 0.389729 31.3254 0.832484 31.7583C1.27524 32.1912 1.87174 32.4307 2.49096 32.4241H29.7589C30.3794 32.4319 30.9775 32.1931 31.422 31.7602C31.8665 31.3273 32.121 30.7356 32.1296 30.1152V2.73211C32.1208 2.11198 31.8661 1.52073 31.4216 1.08825C30.9771 0.655772 30.3791 0.41744 29.7589 0.425619" fill="black"/>
</svg>
